ffmpeg version 3.4.8-0ubuntu0.2 Copyright (c) 2000-2020 the FFmpeg developers
  built with gcc 7 (Ubuntu 7.5.0-3ubuntu1~18.04)
  configuration: --prefix=/usr --extra-version=0ubuntu0.2 --toolchain=hardened --libdir=/usr/lib/x86_64-linux-gnu --incdir=/usr/include/x86_64-linux-gnu --enable-gpl --disable-stripping --enable-avresample --enable-avisynth --enable-gnutls --enable-ladspa --enable-libass --enable-libbluray --enable-libbs2b --enable-libcaca --enable-libcdio --enable-libflite --enable-libfontconfig --enable-libfreetype --enable-libfribidi --enable-libgme --enable-libgsm --enable-libmp3lame --enable-libmysofa --enable-libopenjpeg --enable-libopenmpt --enable-libopus --enable-libpulse --enable-librubberband --enable-librsvg --enable-libshine --enable-libsnappy --enable-libsoxr --enable-libspeex --enable-libssh --enable-libtheora --enable-libtwolame --enable-libvorbis --enable-libvpx --enable-libwavpack --enable-libwebp --enable-libx265 --enable-libxml2 --enable-libxvid --enable-libzmq --enable-libzvbi --enable-omx --enable-openal --enable-opengl --enable-sdl2 --enable-libdc1394 --enable-libdrm --enable-libiec61883 --enable-chromaprint --enable-frei0r --enable-libopencv --enable-libx264 --enable-shared
  libavutil      55. 78.100 / 55. 78.100
  libavcodec     57.107.100 / 57.107.100
  libavformat    57. 83.100 / 57. 83.100
  libavdevice    57. 10.100 / 57. 10.100
  libavfilter     6.107.100 /  6.107.100
  libavresample   3.  7.  0 /  3.  7.  0
  libswscale      4.  8.100 /  4.  8.100
  libswresample   2.  9.100 /  2.  9.100
  libpostproc    54.  7.100 / 54.  7.100
[rawvideo @ 0x55ddbbd17a20] Estimating duration from bitrate, this may be inaccurate
Input #0, rawvideo, from '../../SVC-Encoder-20220109T061506Z-001/SVC-Encoder/Dataset/RollerCoaster/ERP_8x8/tile_yuv/Tile_48_480x240.yuv':
  Duration: 00:00:10.00, start: 0.000000, bitrate: 41472 kb/s
    Stream #0:0: Video: rawvideo (I420 / 0x30323449), yuv420p, 480x240, 41472 kb/s, 30 tbr, 30 tbn, 30 tbc
Stream mapping:
  Stream #0:0 -> #0:0 (rawvideo (native) -> h264 (libx264))
Press [q] to stop, [?] for help
[libx264 @ 0x55ddbbd24c60] using cpu capabilities: MMX2 SSE2Fast LZCNT SSSE3 SSE4.2 AVX
[libx264 @ 0x55ddbbd24c60] profile High, level 2.1
Output #0, rawvideo, to 'RollerCoaster_Tile_48_480x240_x264_QP_28.h264':
  Metadata:
    encoder         : Lavf57.83.100
    Stream #0:0: Video: h264 (libx264), yuv420p, 480x240, q=-1--1, 30 fps, 30 tbn, 30 tbc
    Metadata:
      encoder         : Lavc57.107.100 libx264
    Side data:
      cpb: bitrate max/min/avg: 0/0/0 buffer size: 0 vbv_delay: -1
frame=  200 fps=0.0 q=34.0 PSNR=Y:nan U:nan V:nan *:nan size=      52kB time=00:00:05.23 bitrate=  82.1kbits/s speed=10.4x    frame=  300 fps=0.0 q=34.0 LPSNR=Y:inf U:inf V:inf *:inf size=      97kB time=00:00:09.93 bitrate=  80.3kbits/s speed=12.5x    
video:97kB audio:0kB subtitle:0kB other streams:0kB global headers:0kB muxing overhead: 0.000000%
[libx264 @ 0x55ddbbd24c60] frame I:2     Avg QP:24.70  size:  9983  PSNR Mean Y:44.00 U:47.06 V:46.07 Avg:44.69 Global:44.69
[libx264 @ 0x55ddbbd24c60] frame P:76    Avg QP:26.19  size:   684  PSNR Mean Y:42.45 U:46.88 V:46.03 Avg:43.42 Global:43.39
[libx264 @ 0x55ddbbd24c60] frame B:222   Avg QP:33.37  size:   125  PSNR Mean Y:42.18 U:46.80 V:45.95 Avg:43.18 Global:43.16
[libx264 @ 0x55ddbbd24c60] consecutive B-frames:  0.7%  1.3%  2.0% 96.0%
[libx264 @ 0x55ddbbd24c60] mb I  I16..4: 17.8% 67.3% 14.9%
[libx264 @ 0x55ddbbd24c60] mb P  I16..4:  0.3%  0.1%  0.0%  P16..4: 38.4%  7.8%  1.4%  0.0%  0.0%    skip:52.0%
[libx264 @ 0x55ddbbd24c60] mb B  I16..4:  0.0%  0.0%  0.0%  B16..8: 22.6%  0.5%  0.0%  direct: 0.0%  skip:76.9%  L0:40.9% L1:58.7% BI: 0.4%
[libx264 @ 0x55ddbbd24c60] 8x8 transform intra:62.3% inter:81.0%
[libx264 @ 0x55ddbbd24c60] coded y,uvDC,uvAC intra: 67.4% 78.8% 45.1% inter: 2.6% 3.1% 0.0%
[libx264 @ 0x55ddbbd24c60] i16 v,h,dc,p: 10% 49%  9% 32%
[libx264 @ 0x55ddbbd24c60] i8 v,h,dc,ddl,ddr,vr,hd,vl,hu:  7% 43% 10%  3%  3%  3%  8%  3% 19%
[libx264 @ 0x55ddbbd24c60] i4 v,h,dc,ddl,ddr,vr,hd,vl,hu:  9% 36% 10%  6%  6%  5% 10%  5% 13%
[libx264 @ 0x55ddbbd24c60] i8c dc,h,v,p: 32% 48%  6% 14%
[libx264 @ 0x55ddbbd24c60] Weighted P-Frames: Y:0.0% UV:0.0%
[libx264 @ 0x55ddbbd24c60] ref P L0: 59.9% 16.4% 17.7%  6.0%
[libx264 @ 0x55ddbbd24c60] ref B L0: 77.2% 19.5%  3.2%
[libx264 @ 0x55ddbbd24c60] ref B L1: 79.8% 20.2%
[libx264 @ 0x55ddbbd24c60] PSNR Mean Y:42.261 U:46.821 V:45.968 Avg:43.249 Global:43.225 kb/s:79.73
